<svg xmlns="http://www.w3.org/2000/svg" viewBox="0 0 1920 1080">
  <rect fill="transparent" width="1920" height="1080"/>
  <g fill="#060610" opacity="0.9">
    <path d="M50 900 L80 700 L110 900Z"/>
    <path d="M140 920 L180 680 L220 920Z"/>
    <path d="M280 880 L310 650 L340 880Z"/>
    <path d="M420 910 L460 720 L500 910Z"/>
    <path d="M550 890 L580 670 L610 890Z"/>
    <path d="M680 920 L720 690 L760 920Z"/>
    <path d="M800 880 L830 640 L860 880Z"/>
    <path d="M940 900 L980 710 L1020 900Z"/>
    <path d="M1100 890 L1140 660 L1180 890Z"/>
    <path d="M1240 920 L1280 700 L1320 920Z"/>
    <path d="M1380 880 L1420 650 L1460 880Z"/>
    <path d="M1520 910 L1560 680 L1600 910Z"/>
    <path d="M1680 890 L1720 670 L1760 890Z"/>
    <path d="M1840 900 L1870 690 L1900 900Z"/>
  </g>
  <g fill="#050510" opacity="0.7">
    <path d="M-20 950 L10 750 L40 950Z"/>
    <path d="M200 940 L230 760 L260 940Z"/>
    <path d="M360 960 L390 770 L420 960Z"/>
    <path d="M520 940 L550 740 L580 940Z"/>
    <path d="M660 950 L690 780 L720 950Z"/>
    <path d="M860 960 L890 750 L920 960Z"/>
    <path d="M1040 940 L1070 760 L1100 940Z"/>
    <path d="M1220 950 L1250 770 L1280 950Z"/>
    <path d="M1480 960 L1510 780 L1540 960Z"/>
    <path d="M1640 940 L1670 740 L1700 940Z"/>
    <path d="M1820 950 L1850 760 L1880 950Z"/>
  </g>
</svg>
